<mxfile host="app.diagrams.net" modified="2024-01-08T18:33:19.271Z" agent="Mozilla/5.0 (Windows NT 10.0; Win64; x64) AppleWebKit/537.36 (KHTML, like Gecko) Chrome/120.0.0.0 Safari/537.36" etag="sNFwFRwv3e05Qa7vOYqW" version="22.1.17" type="github">
  <diagram name="Page-1" id="5f0bae14-7c28-e335-631c-24af17079c00">
    <mxGraphModel dx="954" dy="558" grid="1" gridSize="10" guides="1" tooltips="1" connect="1" arrows="1" fold="1" page="1" pageScale="1" pageWidth="1100" pageHeight="850" background="none" math="0" shadow="0">
      <root>
        <mxCell id="0" />
        <mxCell id="1" parent="0" />
        <mxCell id="2WP415lt9PAcQUyVR7Ey-12" style="edgeStyle=orthogonalEdgeStyle;rounded=0;orthogonalLoop=1;jettySize=auto;html=1;entryX=0.5;entryY=0;entryDx=0;entryDy=0;" edge="1" parent="1" source="2WP415lt9PAcQUyVR7Ey-2" target="2WP415lt9PAcQUyVR7Ey-9">
          <mxGeometry relative="1" as="geometry" />
        </mxCell>
        <mxCell id="2WP415lt9PAcQUyVR7Ey-2" value="Application" style="verticalAlign=top;align=left;spacingTop=8;spacingLeft=2;spacingRight=12;shape=cube;size=10;direction=south;fontStyle=4;html=1;whiteSpace=wrap;" vertex="1" parent="1">
          <mxGeometry x="158" y="50" width="770" height="290" as="geometry" />
        </mxCell>
        <mxCell id="2WP415lt9PAcQUyVR7Ey-1" value="customer-request-tracker" style="shape=module;align=left;spacingLeft=20;align=center;verticalAlign=top;whiteSpace=wrap;html=1;" vertex="1" parent="1">
          <mxGeometry x="420" y="100" width="212" height="50" as="geometry" />
        </mxCell>
        <mxCell id="2WP415lt9PAcQUyVR7Ey-6" value="identity-and-access-management&lt;br&gt;" style="shape=module;align=left;spacingLeft=20;align=center;verticalAlign=top;whiteSpace=wrap;html=1;" vertex="1" parent="1">
          <mxGeometry x="168" y="100" width="222" height="50" as="geometry" />
        </mxCell>
        <mxCell id="2WP415lt9PAcQUyVR7Ey-7" value="commons" style="shape=module;align=left;spacingLeft=20;align=center;verticalAlign=top;whiteSpace=wrap;html=1;" vertex="1" parent="1">
          <mxGeometry x="168" y="170" width="222" height="50" as="geometry" />
        </mxCell>
        <mxCell id="2WP415lt9PAcQUyVR7Ey-8" value="notification&lt;br&gt;" style="shape=module;align=left;spacingLeft=20;align=center;verticalAlign=top;whiteSpace=wrap;html=1;" vertex="1" parent="1">
          <mxGeometry x="168" y="240" width="222" height="50" as="geometry" />
        </mxCell>
        <mxCell id="2WP415lt9PAcQUyVR7Ey-9" value="RDBMS" style="shape=datastore;whiteSpace=wrap;html=1;" vertex="1" parent="1">
          <mxGeometry x="472.5" y="420" width="141" height="130" as="geometry" />
        </mxCell>
        <mxCell id="2WP415lt9PAcQUyVR7Ey-13" value="payment-service&lt;br&gt;" style="shape=module;align=left;spacingLeft=20;align=center;verticalAlign=top;whiteSpace=wrap;html=1;" vertex="1" parent="1">
          <mxGeometry x="420" y="170" width="212" height="50" as="geometry" />
        </mxCell>
        <mxCell id="2WP415lt9PAcQUyVR7Ey-14" value="middle-east-bank" style="shape=module;align=left;spacingLeft=20;align=center;verticalAlign=top;whiteSpace=wrap;html=1;" vertex="1" parent="1">
          <mxGeometry x="660" y="70" width="212" height="30" as="geometry" />
        </mxCell>
        <mxCell id="2WP415lt9PAcQUyVR7Ey-15" value="melli-bank" style="shape=module;align=left;spacingLeft=20;align=center;verticalAlign=top;whiteSpace=wrap;html=1;" vertex="1" parent="1">
          <mxGeometry x="660" y="106" width="212" height="30" as="geometry" />
        </mxCell>
        <mxCell id="2WP415lt9PAcQUyVR7Ey-16" value="mellat-bank" style="shape=module;align=left;spacingLeft=20;align=center;verticalAlign=top;whiteSpace=wrap;html=1;" vertex="1" parent="1">
          <mxGeometry x="660" y="144" width="212" height="30" as="geometry" />
        </mxCell>
        <mxCell id="2WP415lt9PAcQUyVR7Ey-17" value="tejarat-bank&lt;br&gt;" style="shape=module;align=left;spacingLeft=20;align=center;verticalAlign=top;whiteSpace=wrap;html=1;" vertex="1" parent="1">
          <mxGeometry x="660" y="183" width="212" height="30" as="geometry" />
        </mxCell>
        <mxCell id="2WP415lt9PAcQUyVR7Ey-18" value="sepah-bank" style="shape=module;align=left;spacingLeft=20;align=center;verticalAlign=top;whiteSpace=wrap;html=1;" vertex="1" parent="1">
          <mxGeometry x="660" y="222" width="212" height="30" as="geometry" />
        </mxCell>
        <mxCell id="2WP415lt9PAcQUyVR7Ey-19" value="pasargad-bank" style="shape=module;align=left;spacingLeft=20;align=center;verticalAlign=top;whiteSpace=wrap;html=1;" vertex="1" parent="1">
          <mxGeometry x="660" y="260" width="212" height="30" as="geometry" />
        </mxCell>
        <mxCell id="2WP415lt9PAcQUyVR7Ey-20" value="saderat-bank&lt;br&gt;" style="shape=module;align=left;spacingLeft=20;align=center;verticalAlign=top;whiteSpace=wrap;html=1;" vertex="1" parent="1">
          <mxGeometry x="660" y="297" width="212" height="30" as="geometry" />
        </mxCell>
      </root>
    </mxGraphModel>
  </diagram>
</mxfile>
